<!-- Generated by IcoMoon.io -->
<svg version="1.1" xmlns="http://www.w3.org/2000/svg" width="33" height="32" viewBox="0 0 33 32">
<title>epigo-etoile</title>
<path d="M32.436 13.202c-0.050-1.189-0.56-2.288-1.436-3.094-0.825-0.759-1.896-1.177-3.016-1.177-1.244 0-2.44 0.525-3.281 1.44-0.934 1.016-1.306 2.352-1.133 3.623l-6.278 2.040v-6.6c0.489-0.088 0.963-0.257 1.4-0.503 1.037-0.584 1.785-1.537 2.105-2.684s0.175-2.349-0.409-3.387c-0.789-1.4-2.278-2.27-3.887-2.27-0.762 0-1.517 0.199-2.184 0.574-2.141 1.206-2.902 3.929-1.696 6.071 0.657 1.167 1.802 1.963 3.096 2.197v6.601l-6.275-2.039c0.067-0.488 0.052-0.99-0.048-1.487-0.417-2.073-2.253-3.577-4.365-3.577-0.295 0-0.593 0.030-0.884 0.089-2.409 0.485-3.974 2.84-3.489 5.25 0.418 2.073 2.253 3.577 4.365 3.577 0.295 0 0.593-0.030 0.884-0.089 1.167-0.235 2.173-0.911 2.832-1.902 0.079-0.118 0.15-0.239 0.217-0.362l6.276 2.039-3.878 5.337c-0.444-0.215-0.925-0.356-1.429-0.414-0.172-0.020-0.346-0.030-0.518-0.030-2.261 0-4.162 1.696-4.423 3.945-0.283 2.441 1.473 4.657 3.915 4.94 0.172 0.020 0.345 0.030 0.517 0.030 2.261 0 4.162-1.696 4.423-3.945 0.137-1.183-0.195-2.348-0.934-3.281-0.088-0.111-0.181-0.217-0.277-0.318l3.879-5.339 3.88 5.34c-0.341 0.355-0.627 0.768-0.838 1.229-0.496 1.082-0.54 2.293-0.125 3.409s1.239 2.004 2.322 2.499c0.588 0.269 1.211 0.406 1.853 0.406 1.739 0 3.331-1.021 4.055-2.602 1.023-2.234 0.038-4.885-2.197-5.908-0.588-0.269-1.211-0.406-1.853-0.406-0.685 0-1.347 0.159-1.942 0.448l-3.88-5.34 6.277-2.039c0.23 0.429 0.533 0.828 0.911 1.176 0.825 0.759 1.896 1.177 3.016 1.177 1.244 0 2.44-0.525 3.281-1.44 0.806-0.876 1.223-2.014 1.173-3.204zM7.424 14.982c-0.426 0.641-1.076 1.078-1.831 1.23-0.189 0.038-0.382 0.057-0.573 0.057-1.364 0-2.551-0.973-2.821-2.313-0.314-1.558 0.698-3.081 2.256-3.394 0.189-0.038 0.382-0.057 0.573-0.057 1.365 0 2.551 0.973 2.821 2.313 0.152 0.755 0.001 1.523-0.425 2.164zM13.993 6.462c-0.78-1.384-0.288-3.145 1.096-3.925 0.432-0.243 0.92-0.372 1.411-0.372 1.041 0 2.004 0.563 2.514 1.468 0.378 0.671 0.472 1.448 0.265 2.189s-0.691 1.358-1.361 1.735c-0.432 0.243-0.92 0.372-1.411 0.372-1.041 0-2.004-0.563-2.514-1.468zM12.271 27.214c-0.168 1.454-1.397 2.551-2.858 2.551-0.111 0-0.224-0.007-0.336-0.020-1.578-0.183-2.714-1.616-2.531-3.194 0.168-1.454 1.397-2.551 2.858-2.551 0.112 0 0.225 0.007 0.336 0.020 0.765 0.089 1.449 0.469 1.927 1.073s0.692 1.357 0.604 2.121zM24.797 24.262c1.445 0.662 2.082 2.375 1.42 3.82-0.468 1.022-1.497 1.683-2.622 1.683-0.414 0-0.817-0.088-1.198-0.263-0.7-0.321-1.233-0.894-1.501-1.616s-0.239-1.504 0.081-2.204c0.468-1.022 1.497-1.683 2.622-1.683 0.414-0 0.817 0.088 1.198 0.262zM30.103 15.339c-0.544 0.592-1.317 0.931-2.122 0.931-0.724 0-1.417-0.27-1.95-0.761-1.169-1.076-1.246-2.902-0.17-4.072 0.544-0.592 1.318-0.931 2.122-0.931 0.724 0 1.416 0.27 1.95 0.761 0.567 0.521 0.896 1.232 0.928 2.001s-0.237 1.505-0.758 2.071z"></path>
</svg>
