<!-- Generated by IcoMoon.io -->
<svg version="1.1" xmlns="http://www.w3.org/2000/svg" width="26" height="32" viewBox="0 0 26 32">
<title>noun_Time</title>
<path d="M12.8 0.8c-0.442 0-0.8 0.358-0.8 0.8s0.358 0.8 0.8 0.8v0c0.008-0 0.017-0 0.025-0 5.758 0 10.426 4.668 10.426 10.426s-4.668 10.426-10.426 10.426c-5.758 0-10.426-4.668-10.426-10.426 0-2.158 0.656-4.163 1.779-5.827l-0.024 0.037 2.298 2.040c0.071 0.064 0.166 0.102 0.269 0.102 0.224 0 0.406-0.182 0.406-0.406 0-0.008-0-0.017-0.001-0.025l0 0.001-0.327-5.549-5.551 0.327c-0.213 0.013-0.382 0.189-0.382 0.405 0 0.12 0.052 0.228 0.136 0.303l0 0 1.94 1.724c-1.34 1.909-2.141 4.282-2.141 6.841 0 6.627 5.373 12 12 12s12-5.373 12-12c0-6.627-5.373-12-12-12-0.001 0-0.002 0-0.003 0h0z"></path>
<path d="M12.8 14.8c0.262-0.001 0.512-0.053 0.741-0.146l-0.013 0.005 2.907 2.907c0.144 0.139 0.34 0.225 0.556 0.225 0.442 0 0.8-0.358 0.8-0.8 0-0.216-0.086-0.412-0.225-0.556l-2.907-2.907c0.089-0.218 0.141-0.47 0.141-0.735 0-0.813-0.488-1.511-1.187-1.818l-0.013-0.005v-5.769c0-0.442-0.358-0.8-0.8-0.8s-0.8 0.358-0.8 0.8v0 5.769c-0.71 0.317-1.196 1.018-1.196 1.831 0 1.103 0.893 1.998 1.996 2h0z"></path>
</svg>
